<?xml version="1.0" encoding="utf-8"?>
<!-- Generator: Adobe Illustrator 25.0.0, SVG Export Plug-In . SVG Version: 6.00 Build 0)  -->
<svg version="1.1" id="Capa_1" xmlns="http://www.w3.org/2000/svg" xmlns:xlink="http://www.w3.org/1999/xlink" x="0px" y="0px"
	 viewBox="0 0 479 482" style="enable-background:new 0 0 479 482;" xml:space="preserve">
<style type="text/css">
	.st0{fill:#EF1F86;}
	.st1{fill:#00CCA5;}
	.st2{fill:#00CCA5;stroke:#0F064F;stroke-width:4;stroke-miterlimit:10;}
	.st3{fill:none;stroke:#0F064F;stroke-width:10;stroke-miterlimit:10;}
	.st4{fill:none;stroke:#0F064F;stroke-width:10;stroke-linecap:round;stroke-miterlimit:10;}
	.st5{fill:none;stroke:#0F064F;stroke-width:4;stroke-miterlimit:10;}
	.st6{fill:#0F064F;}
	.st7{fill:none;stroke:#FFFFFF;stroke-width:10;stroke-miterlimit:10;}
	.st8{fill:none;stroke:#FFFFFF;stroke-width:7;stroke-miterlimit:10;}
	.st9{fill:none;stroke:#FFFFFF;stroke-width:4;stroke-miterlimit:10;}
	.st10{fill:#FFFFFF;}
	
		.st11{fill-rule:evenodd;clip-rule:evenodd;fill:none;stroke:#0F064F;stroke-width:10;stroke-linecap:round;stroke-linejoin:round;stroke-miterlimit:10;}
	.st12{fill-rule:evenodd;clip-rule:evenodd;fill:none;stroke:#0F064F;stroke-width:10;stroke-linecap:round;stroke-miterlimit:10;}
	.st13{fill-rule:evenodd;clip-rule:evenodd;fill:none;}
	
		.st14{fill-rule:evenodd;clip-rule:evenodd;fill:none;stroke:#0F064F;stroke-width:7;stroke-linecap:round;stroke-linejoin:round;stroke-miterlimit:10;}
	.st15{fill-rule:evenodd;clip-rule:evenodd;fill:#0F064F;}
	
		.st16{fill-rule:evenodd;clip-rule:evenodd;fill:#00CCA5;stroke:#0F064F;stroke-width:4;stroke-linejoin:round;stroke-miterlimit:10;}
	
		.st17{fill-rule:evenodd;clip-rule:evenodd;fill:#F4C645;stroke:#0F064F;stroke-width:10;stroke-linecap:round;stroke-linejoin:round;stroke-miterlimit:10;}
	
		.st18{fill-rule:evenodd;clip-rule:evenodd;fill:#EF1F86;stroke:#0F064F;stroke-width:10;stroke-linecap:round;stroke-linejoin:round;stroke-miterlimit:10;}
	.st19{fill-rule:evenodd;clip-rule:evenodd;fill:#00CCA5;stroke:#0F064F;stroke-width:4;stroke-miterlimit:10;}
	
		.st20{fill-rule:evenodd;clip-rule:evenodd;fill:#FFFFFF;stroke:#0F064F;stroke-width:10;stroke-linecap:round;stroke-linejoin:round;stroke-miterlimit:10;}
	
		.st21{fill-rule:evenodd;clip-rule:evenodd;fill:#F4C645;stroke:#0F064F;stroke-width:6;stroke-linecap:round;stroke-linejoin:round;stroke-miterlimit:10;}
	.st22{fill-rule:evenodd;clip-rule:evenodd;fill:#402431;}
</style>
<circle class="st0" cx="-239.5" cy="249.9" r="239.5"/>
<path class="st1" d="M723.9,297.2l16,66.8c0,0-21.4,4.9-33.6,26.8c-12.2,22-12.7,61-16.7,56.1c-4-4.9-18.8-45.8,0-100.5
	C702.7,310.5,723.9,297.2,723.9,297.2z"/>
<path class="st1" d="M836.3,297.2l-16,66.8c0,0,21.4,4.9,33.6,26.8c12.2,22,12.7,61,16.7,56.1c4-4.9,18.8-45.8,0-100.5
	C857.6,310.5,836.3,297.2,836.3,297.2z"/>
<path class="st2" d="M839.1,172.3c-6.8-44.8-54.2-101-56.2-103.3c-1.2-1.4-3.6-1.4-4.7,0c-2,2.4-49.4,58.5-56.2,103.3
	c0,0,14.7-22.3,57.8-22.3C822.8,150,839.1,172.3,839.1,172.3z"/>
<path class="st3" d="M841.3,303C841.3,303,841.3,303,841.3,303c-2.6-2.6-5.1-5.5-7.4-8.7c7.1-40.7,11.4-87.9,5.3-128.3
	c-6.8-44.8-54.2-101-56.2-103.3c-1.2-1.4-3.6-1.4-4.7,0c-2,2.4-49.4,58.5-56.2,103.3c-6.1,40-2,86.6,5,127.1c-2.5,3.6-5.3,7-8.3,9.9
	c-31.4,31.1-45.7,77.5-37.4,121.1c1.3,7,3.1,13.9,5.1,20.6c0.4,1.3,1.6,2.2,3,2.2c0.1,0,0.2,0,0.2,0c1.4-0.1,2.6-1.2,2.8-2.6
	c0-0.2,2.3-15.4,5.2-30.6c4.6-24.1,21.2-43.6,42.3-49.7c1-0.3,2-0.5,3.1-0.8c4.7,16.4,8.6,26.9,9.8,28.3c0.4,0.4,0.8,0.7,1.4,0.9
	l-3.4,16.5c-0.2,0.9,0,1.9,0.6,2.6c0.6,0.7,1.5,1.1,2.4,1.1h19.9c1.3,15.7,2.5,27.6,2.9,31.4c0.2,1.6,1.5,2.8,3.1,2.8c0,0,0,0,0,0
	c1.6,0,2.9-1.2,3.1-2.7c0-0.2,1.6-13.2,3.3-31.5h20.1c0.9,0,1.8-0.4,2.4-1.1c0.6-0.7,0.8-1.7,0.6-2.6l-3.4-16.3
	c0.9,0,1.9-0.5,2.5-1.2c1.2-1.4,5-11.8,9.7-28.1c0.7,0.2,1.4,0.3,2,0.5c21.1,6.1,37.7,25.6,42.3,49.7c2.9,15.1,5.2,30.4,5.2,30.6
	c0.2,1.4,1.4,2.5,2.8,2.6c0.1,0,0.2,0,0.2,0c1.4,0,2.6-0.9,3-2.2c2.1-6.7,3.8-13.6,5.1-20.6C887,380.5,872.7,334.1,841.3,303z"/>
<path class="st3" d="M779.7,409.8c0-0.2,0.1-0.3,0.1-0.5c-0.6-7.1-1.1-14-1.5-20.7l-0.1-2.2c-1.2-18-1.8-32.6-2-44.3
	c-0.1-7.3-0.1-13.9,0-19.8c0-0.5,0-1,0-1.4c0-0.5,0-1,0-1.4c0.6-16.4,2.3-22.8,3.4-25.3c0.4-0.7,0.7-1.2,1.1-1.4
	c0.9,0.7,3.9,4.9,4.2,30.6c0,0,0,0.1,0,0.1c0,1,0,2,0,3c0,3.7-0.1,7.6-0.2,11.8c0,0.2,0,0.5,0,0.7c0,1.1-0.1,2.2-0.1,3.3
	c-0.4,11.1-1.1,24.8-2.4,41.5c-0.6,8.3-1.4,16.9-2.2,25.7c0,0.1,0,0.3,0.1,0.4c-0.1,1-0.2,2-0.3,3
	C779.9,411.7,779.8,410.8,779.7,409.8z"/>
<path class="st2" d="M815.8,194.3c0-19.9-16.2-36.1-36.1-36.1c-19.9,0-36.1,16.2-36.1,36.1c0,19.9,16.2,36.1,36.1,36.1
	C799.7,230.4,815.8,214.2,815.8,194.3z M779.8,218.7c-13.4,0-24.4-10.9-24.4-24.4c0-13.4,10.9-24.4,24.4-24.4
	c13.4,0,24.4,10.9,24.4,24.4C804.2,207.8,793.2,218.7,779.8,218.7z"/>
<line class="st4" x1="549.6" y1="475.5" x2="989.6" y2="475.5"/>
<line class="st4" x1="547.2" y1="27.8" x2="547.2" y2="454.9"/>
<polyline class="st3" points="834,293.1 813,379.2 808.3,392.4 754.2,392.4 748,379.2 727,293.1 "/>
<path class="st3" d="M-232.2-63.7"/>
<path class="st3" d="M947.2,83.1"/>
<path class="st3" d="M883,48.9"/>
<path class="st3" d="M856.5,83.1"/>
<path class="st3" d="M828.2,47.7"/>
<path class="st3" d="M829.6,27.7"/>
<path class="st3" d="M766.2,83.1"/>
<g>
	<g>
		<line class="st5" x1="683.5" y1="27.7" x2="880.5" y2="27.7"/>
		<g>
			<rect x="677.2" y="21.1" class="st6" width="13.2" height="13.2"/>
		</g>
		<g>
			<rect x="873.6" y="21.1" class="st6" width="13.2" height="13.2"/>
		</g>
	</g>
</g>
<g>
	<g>
		<path class="st5" d="M677.4,125.2c3.2-54,48.1-96.9,103-96.9c54.9,0,99.7,42.8,103,96.9"/>
		<g>
			
				<rect x="670.8" y="118.3" transform="matrix(3.518400e-02 -0.9994 0.9994 3.518400e-02 528.7952 797.4722)" class="st6" width="13.2" height="13.2"/>
		</g>
		<g>
			
				<rect x="876.6" y="118.3" transform="matrix(0.9994 -3.518400e-02 3.518400e-02 0.9994 -3.8464 31.1533)" class="st6" width="13.2" height="13.2"/>
		</g>
	</g>
</g>
<rect x="773.2" y="20.9" class="st6" width="13.3" height="13.3"/>
<path class="st7" d="M-325.7,315.6C-325.7,315.6-325.7,315.6-325.7,315.6c-2.6-2.6-5.1-5.5-7.4-8.7c7.1-40.7,11.4-87.9,5.3-128.3
	c-6.8-44.8-54.2-101-56.2-103.3c-1.2-1.4-3.6-1.4-4.7,0c-2,2.4-49.4,58.5-56.2,103.3c-6.1,40-2,86.6,5,127.1c-2.5,3.6-5.3,7-8.3,9.9
	c-31.4,31.1-45.7,77.5-37.4,121.1c1.3,7,3.1,13.9,5.1,20.6c0.4,1.3,1.6,2.2,3,2.2c0.1,0,0.2,0,0.2,0c1.4-0.1,2.6-1.2,2.8-2.6
	c0-0.2,2.3-15.4,5.2-30.6c4.6-24.1,21.2-43.6,42.3-49.7c1-0.3,2-0.5,3.1-0.8c4.7,16.4,8.6,26.9,9.8,28.3c0.4,0.4,0.8,0.7,1.4,0.9
	l-3.4,16.5c-0.2,0.9,0,1.9,0.6,2.6c0.6,0.7,1.5,1.1,2.4,1.1h19.9c1.3,15.7,2.5,27.6,2.9,31.4c0.2,1.6,1.5,2.8,3.1,2.8c0,0,0,0,0,0
	c1.6,0,2.9-1.2,3.1-2.7c0-0.2,1.6-13.2,3.3-31.5h20.1c0.9,0,1.8-0.4,2.4-1.1c0.6-0.7,0.8-1.7,0.6-2.6l-3.4-16.3
	c0.9,0,1.9-0.5,2.5-1.2c1.2-1.4,5-11.8,9.7-28.1c0.7,0.2,1.4,0.3,2,0.5c21.1,6.1,37.7,25.6,42.3,49.7c2.9,15.1,5.2,30.4,5.2,30.6
	c0.2,1.4,1.4,2.5,2.8,2.6c0.1,0,0.2,0,0.2,0c1.4,0,2.6-0.9,3-2.2c2.1-6.7,3.8-13.6,5.1-20.6C-280,393.1-294.3,346.7-325.7,315.6z"/>
<path class="st7" d="M-387.3,422.4c0-0.2,0.1-0.3,0.1-0.5c-0.6-7.1-1.1-14-1.5-20.7l-0.1-2.2c-1.2-18-1.8-32.6-2-44.3
	c-0.1-7.3-0.1-13.9,0-19.8c0-0.5,0-1,0-1.4c0-0.5,0-1,0-1.4c0.6-16.4,2.3-22.8,3.4-25.3c0.4-0.7,0.7-1.2,1.1-1.4
	c0.9,0.7,3.9,4.9,4.2,30.6c0,0,0,0.1,0,0.1c0,1,0,2,0,3c0,3.7-0.1,7.6-0.2,11.8c0,0.2,0,0.5,0,0.7c0,1.1-0.1,2.2-0.1,3.3
	c-0.4,11.1-1.1,24.8-2.4,41.5c-0.6,8.3-1.4,16.9-2.2,25.7c0,0.1,0,0.3,0.1,0.4c-0.1,1-0.2,2-0.3,3
	C-387.1,424.4-387.2,423.4-387.3,422.4z"/>
<path class="st8" d="M-351.1,206.9c0-19.9-16.2-36.1-36.1-36.1c-19.9,0-36.1,16.2-36.1,36.1c0,19.9,16.2,36.1,36.1,36.1
	C-367.3,243-351.1,226.8-351.1,206.9z M-387.2,231.3c-13.4,0-24.4-10.9-24.4-24.4c0-13.4,10.9-24.4,24.4-24.4
	c13.4,0,24.4,10.9,24.4,24.4C-362.8,220.4-373.8,231.3-387.2,231.3z"/>
<polyline class="st7" points="-333,305.7 -353.9,391.8 -358.6,405 -412.8,405 -419,391.8 -439.9,305.7 "/>
<path class="st3" d="M-98.6,71.4"/>
<path class="st3" d="M-284,61.5"/>
<path class="st3" d="M-310.4,95.7"/>
<path class="st3" d="M-338.7,60.4"/>
<path class="st3" d="M-337.4,40.3"/>
<path class="st3" d="M-400.8,95.7"/>
<g>
	<g>
		<line class="st9" x1="-483.5" y1="40.3" x2="-286.4" y2="40.3"/>
		<g>
			<rect x="-489.8" y="33.7" class="st10" width="13.2" height="13.2"/>
		</g>
		<g>
			<rect x="-293.4" y="33.7" class="st10" width="13.2" height="13.2"/>
		</g>
	</g>
</g>
<g>
	<g>
		<path class="st9" d="M-489.6,137.8c3.2-54,48.1-96.9,103-96.9c54.9,0,99.7,42.8,103,96.9"/>
		<g>
			
				<rect x="-496.2" y="130.9" transform="matrix(3.518400e-02 -0.9994 0.9994 3.518400e-02 -609.7238 -356.6074)" class="st10" width="13.2" height="13.2"/>
		</g>
		<g>
			
				<rect x="-290.3" y="130.9" transform="matrix(0.9994 -3.518400e-02 3.518400e-02 0.9994 -5.0128 -9.8976)" class="st10" width="13.2" height="13.2"/>
		</g>
	</g>
</g>
<rect x="-393.8" y="33.5" class="st10" width="13.3" height="13.3"/>
<path class="st7" d="M-445.6,170.9c0,0,14.7-22.3,57.8-22.3s59.4,22.3,59.4,22.3"/>
<polygon class="st11" points="153.6,887.8 328.1,887.8 334.7,897.8 334.7,902.8 147,902.8 147,897.8 "/>
<rect x="182.9" y="832.7" class="st12" width="115.9" height="54.5"/>
<path class="st12" d="M42.9,523h395.9c8.3,0,15.1,6.8,15.1,15.1v279.5c0,8.3-6.8,15.1-15.1,15.1H42.9c-8.3,0-15.1-6.8-15.1-15.1
	V538.1C27.8,529.8,34.6,523,42.9,523z"/>
<path class="st13" d="M42.9,528.6h395.9c5.2,0,9.5,4.3,9.5,9.5v261.6H33.4V538.1C33.4,532.8,37.7,528.6,42.9,528.6z"/>
<rect x="49.4" y="547.6" class="st14" width="382.8" height="233.8"/>
<rect x="49.5" y="547.6" class="st15" width="382.8" height="41.2"/>
<rect x="106.2" y="602.5" class="st16" width="269.3" height="147.4"/>
<rect x="119.7" y="616.1" class="st15" width="73.9" height="54.2"/>
<rect x="119.7" y="676.5" class="st15" width="73.9" height="10.9"/>
<rect x="203.7" y="616.1" class="st15" width="73.9" height="54.2"/>
<rect x="203.7" y="676.5" class="st15" width="73.9" height="10.9"/>
<polygon class="st15" points="267.3,745.1 272.3,742.2 260.9,722.1 274.7,714.3 253,698.2 232,682.7 231.6,682 231.7,682.4 
	231.3,682.2 231.7,682.9 234.3,708.8 236.9,735.7 250.9,727.7 262.4,747.9 267.3,745.1 "/>
<rect x="287.6" y="616.1" class="st15" width="73.9" height="54.2"/>
<rect x="287.6" y="676.5" class="st15" width="73.9" height="10.9"/>
<line class="st4" x1="33.4" y1="799.7" x2="451.1" y2="799.7"/>
<circle class="st11" cx="241.7" cy="815.7" r="6.8"/>
<path class="st17" d="M74.1,32.2h324h16.3c0,142.3,0,301,0,443.3H74.1v-69.2v-43.2V32.2z"/>
<polygon class="st18" points="74.1,32.2 414.3,32.2 414.3,101.8 414.3,121.9 414.3,475.5 144.9,475.5 74.1,406.3 "/>
<polygon class="st11" points="143.7,475.5 74.1,405.9 143.7,405.9 "/>
<path class="st11" d="M137.9,40.6c0.7,1.8,1.1,3.7,1.1,5.8c0,8.4-6.8,15.2-15.2,15.2c-5,0-9.5-2.5-12.3-6.2
	c-0.7-1.8-1.1-3.7-1.1-5.8c0-8.4,6.8-15.2,15.2-15.2C130.7,34.4,135.2,36.8,137.9,40.6z"/>
<path class="st11" d="M198.1,40.6c0.7,1.8,1.1,3.7,1.1,5.8c0,8.4-6.8,15.2-15.2,15.2c-5,0-9.5-2.5-12.3-6.2
	c-0.7-1.8-1.1-3.7-1.1-5.8c0-8.4,6.8-15.2,15.2-15.2C190.9,34.4,195.3,36.8,198.1,40.6z"/>
<path class="st11" d="M258.3,40.6c0.7,1.8,1.1,3.7,1.1,5.8c0,8.4-6.8,15.2-15.2,15.2c-5,0-9.5-2.5-12.3-6.2
	c-0.7-1.8-1.1-3.7-1.1-5.8c0-8.4,6.8-15.2,15.2-15.2C251,34.4,255.5,36.8,258.3,40.6z"/>
<path class="st11" d="M364.6,31.2c8.4,0,15.2,6.8,15.2,15.2c0,8.4-6.8,15.2-15.2,15.2c-8.4,0-15.2-6.8-15.2-15.2
	C349.3,38,356.1,31.2,364.6,31.2z"/>
<path class="st19" d="M123.9,5.2L123.9,5.2c4,0,7.3,3.3,7.3,7.3v35.2c0,4-3.3,7.3-7.3,7.3l0,0c-4,0-7.3-3.3-7.3-7.3V12.5
	C116.6,8.5,119.9,5.2,123.9,5.2z"/>
<path class="st19" d="M184,5.2L184,5.2c4,0,7.3,3.3,7.3,7.3v35.2c0,4-3.3,7.3-7.3,7.3l0,0c-4,0-7.3-3.3-7.3-7.3V12.5
	C176.7,8.5,180,5.2,184,5.2z"/>
<path class="st19" d="M244.2,5.2L244.2,5.2c4,0,7.3,3.3,7.3,7.3v35.2c0,4-3.3,7.3-7.3,7.3l0,0c-4,0-7.3-3.3-7.3-7.3V12.5
	C236.9,8.5,240.2,5.2,244.2,5.2z"/>
<path class="st19" d="M364.6,5.2L364.6,5.2c4,0,7.3,3.3,7.3,7.3v35.2c0,4-3.3,7.3-7.3,7.3l0,0c-4,0-7.3-3.3-7.3-7.3V12.5
	C357.3,8.5,360.6,5.2,364.6,5.2z"/>
<path class="st20" d="M245.7,148.5L374,276.8l1.1,1.1l-1.1,1.2L245.7,407.4l-1.2,1.1l-1.1-1.1L115.1,279.1l-1.2-1.2l1.2-1.1
	l128.3-128.3l1.1-1.2L245.7,148.5L245.7,148.5z"/>
<path class="st19" d="M238.9,153.8c-7,35.4-22.9,65-41.2,94.3c-18.3,29.3-12.5,60.6,12.6,88.7h34.8h0.1H280
	c25.2-28.1,30.9-59.4,12.6-88.7c-18.3-29.3-34.8-58.6-41.8-94.1c4.4-1.3,7.7-5,8.1-10c0.4-5-4.8-10.3-10.7-10.3v17.1v3.5v67.1
	c3.5,1,6.1,4.2,6.1,7.9v69.4c0,4.5-3.8,8.2-8.5,8.2l0,0c-0.2,0-0.4,0-0.6,0c-0.2,0-0.4,0-0.6,0l0,0c-4.7,0-8.5-3.7-8.5-8.2v-69.4
	c0-3.7,2.6-6.9,6.1-7.9v-67.1v-3.5v-17.1c-5.9,0-10.9,5.5-10.7,10.3C231.6,148.8,234.3,151.9,238.9,153.8z"/>
<path class="st11" d="M244.5,137.3c6.8,0,12.4,5.5,12.4,12.4c0,6.8-5.5,12.4-12.4,12.4c-6.8,0-12.4-5.5-12.4-12.4
	C232.2,142.8,237.7,137.3,244.5,137.3z"/>
<path class="st11" d="M210.9,336.7h68.4c1.1,0,2,0.9,2,2v11.4c0,1.1-0.9,2-2,2h-68.4c-1.1,0-2-0.9-2-2v-11.4
	C208.9,337.6,209.8,336.7,210.9,336.7z"/>
<rect x="211.5" y="352.2" class="st21" width="67.3" height="123.3"/>
<rect x="166" y="147.6" class="st22" width="157.2" height="4.1"/>
<path class="st22" d="M166,143.8c3.2,0,5.8,2.6,5.8,5.8c0,3.2-2.6,5.8-5.8,5.8c-3.2,0-5.8-2.6-5.8-5.8
	C160.2,146.4,162.8,143.8,166,143.8z"/>
<path class="st22" d="M323.1,143.8c3.2,0,5.8,2.6,5.8,5.8c0,3.2-2.6,5.8-5.8,5.8c-3.2,0-5.8-2.6-5.8-5.8
	C317.3,146.4,319.9,143.8,323.1,143.8z"/>
<path class="st11" d="M115.9,266.7c6.2,0,11.2,5,11.2,11.2c0,6.2-5,11.2-11.2,11.2c-6.2,0-11.2-5-11.2-11.2
	C104.7,271.8,109.7,266.7,115.9,266.7z"/>
<path class="st11" d="M318.5,40.6c0.7,1.8,1.1,3.7,1.1,5.8c0,8.4-6.8,15.2-15.2,15.2c-5,0-9.5-2.5-12.3-6.2
	c-0.7-1.8-1.1-3.7-1.1-5.8c0-8.4,6.8-15.2,15.2-15.2C311.2,34.4,315.7,36.8,318.5,40.6z"/>
<path class="st19" d="M304.4,5.2L304.4,5.2c4,0,7.3,3.3,7.3,7.3v35.2c0,4-3.3,7.3-7.3,7.3l0,0c-4,0-7.3-3.3-7.3-7.3V12.5
	C297.1,8.5,300.4,5.2,304.4,5.2z"/>
<path class="st11" d="M373.5,266.7c6.2,0,11.2,5,11.2,11.2c0,6.2-5,11.2-11.2,11.2c-6.2,0-11.2-5-11.2-11.2
	C362.3,271.8,367.3,266.7,373.5,266.7z"/>
<g>
	<line class="st1" x1="160.2" y1="149.6" x2="328.9" y2="149.6"/>
	<g>
		<line class="st5" x1="164.4" y1="149.6" x2="324.6" y2="149.6"/>
		<g>
			<path class="st6" d="M164.7,154.1c-2.5,0-4.5-2-4.5-4.5s2-4.5,4.5-4.5c2.5,0,4.5,2,4.5,4.5S167.2,154.1,164.7,154.1z"/>
		</g>
		<g>
			<path class="st6" d="M324.4,154.1c2.5,0,4.5-2,4.5-4.5s-2-4.5-4.5-4.5c-2.5,0-4.5,2-4.5,4.5S321.9,154.1,324.4,154.1z"/>
		</g>
	</g>
</g>
<image style="overflow:visible;" width="479" height="482" xlink:href="logo.png"  transform="matrix(1 0 0 1 -495.5844 533.3132)">
</image>
</svg>
