<svg xmlns="http://www.w3.org/2000/svg" width="479" height="482" viewBox="0 0 479 482">
  <defs>
    <style>
      .a1e0cdd2-e891-423f-91eb-d494ee928b54 {
        fill: #0f064f;
      }

      .bd30721e-2491-4a3d-a05a-79bbb717cccb {
        fill: #130d63;
      }

      .a9a31035-73c0-47c3-8c94-586f8a9faf74 {
        fill: #131375;
      }

      .e6bbdd6e-bfcd-4e49-8ab6-8f0b9dff0403 {
        fill: #f4c645;
      }

      .a62fe6bb-e73b-4904-aeec-027bac4f5033 {
        fill: #00cca5;
      }

      .a62fe6bb-e73b-4904-aeec-027bac4f5033, .bf82cbfd-d500-4b7c-9531-ab36555d8fdd {
        stroke: #0f064f;
      }

      .a62fe6bb-e73b-4904-aeec-027bac4f5033, .b1bb1e44-6da9-49b5-a876-a7687cf1ea2f, .bf82cbfd-d500-4b7c-9531-ab36555d8fdd {
        stroke-miterlimit: 10;
      }

      .a62fe6bb-e73b-4904-aeec-027bac4f5033, .b1bb1e44-6da9-49b5-a876-a7687cf1ea2f {
        stroke-width: 4px;
      }

      .bf82cbfd-d500-4b7c-9531-ab36555d8fdd {
        fill: #ef1f86;
        stroke-width: 3px;
      }

      .b1bb1e44-6da9-49b5-a876-a7687cf1ea2f {
        fill: none;
        stroke: #fff;
      }

      .f1ad9c0f-6478-45ba-b5d1-48d3398759be {
        fill: #fff;
      }
    </style>
  </defs>
  <g id="b4b5b406-7484-4414-b0d1-e839a2f0d9a1" data-name="Capa 2">
    <circle class="a1e0cdd2-e891-423f-91eb-d494ee928b54" cx="239.5" cy="243.5" r="239.5"/>
    <circle class="bd30721e-2491-4a3d-a05a-79bbb717cccb" cx="239.5" cy="243.5" r="182"/>
    <circle class="a9a31035-73c0-47c3-8c94-586f8a9faf74" cx="239.5" cy="243.5" r="134.3"/>
  </g>
  <g id="a372624c-8ee1-4e9e-b062-a68bd800498f" data-name="Capa 1">
    <path class="e6bbdd6e-bfcd-4e49-8ab6-8f0b9dff0403" d="M300.9,305.8h0a70.5,70.5,0,0,1-7.4-8.7c7.1-40.7,11.4-87.9,5.3-128.3C292,124,244.6,67.8,242.6,65.5a3.2,3.2,0,0,0-4.7,0c-2,2.4-49.4,58.5-56.2,103.3-6.1,40-2,86.6,5,127.1a66.9,66.9,0,0,1-8.3,9.9C147,336.9,132.7,383.3,141,426.9a199.9,199.9,0,0,0,5.1,20.6,3.1,3.1,0,0,0,3,2.2h.2a3.1,3.1,0,0,0,2.8-2.6c0-.2,2.3-15.4,5.2-30.6,4.6-24.1,21.2-43.6,42.3-49.7l3.1-.8c4.7,16.4,8.6,26.9,9.8,28.3a3.4,3.4,0,0,0,1.4.9l-3.4,16.5a3,3,0,0,0,.6,2.6,3.2,3.2,0,0,0,2.4,1.1h19.9c1.3,15.7,2.5,27.6,2.9,31.4a3.1,3.1,0,0,0,3.1,2.8h0a3.1,3.1,0,0,0,3.1-2.7c0-.2,1.6-13.2,3.3-31.5h20.1a3.2,3.2,0,0,0,2.4-1.1,3,3,0,0,0,.6-2.6l-3.4-16.3a3.5,3.5,0,0,0,2.5-1.2c1.2-1.4,5-11.8,9.7-28.1l2,.5c21.1,6.1,37.7,25.6,42.3,49.7,2.9,15.1,5.2,30.4,5.2,30.6a3.1,3.1,0,0,0,2.8,2.6h.2a3.1,3.1,0,0,0,3-2.2,177.1,177.1,0,0,0,5.1-20.6C346.6,383.3,332.3,336.9,300.9,305.8Z"/>
    <path class="a62fe6bb-e73b-4904-aeec-027bac4f5033" d="M183.5,300l16,66.8a56.6,56.6,0,0,0-33.6,26.8c-12.2,22-12.7,61-16.7,56.1s-18.8-45.8,0-100.5C162.3,313.3,183.5,300,183.5,300Z"/>
    <path class="a62fe6bb-e73b-4904-aeec-027bac4f5033" d="M295.9,300l-16,66.8a56.6,56.6,0,0,1,33.6,26.8c12.2,22,12.7,61,16.7,56.1s18.8-45.8,0-100.5C317.2,313.3,295.9,300,295.9,300Z"/>
    <path class="bf82cbfd-d500-4b7c-9531-ab36555d8fdd" d="M298.7,169.1c-6.8-44.8-54.2-101-56.2-103.3a3.2,3.2,0,0,0-4.7,0c-2,2.4-49.4,58.5-56.2,103.3,0,0,14.7-22.3,57.8-22.3S298.7,169.1,298.7,169.1Z"/>
    <path class="a62fe6bb-e73b-4904-aeec-027bac4f5033" d="M275.4,197.1a36.1,36.1,0,1,0-36.1,36.1A36.1,36.1,0,0,0,275.4,197.1Zm-36,24.4a24.4,24.4,0,1,1,24.4-24.4A24.4,24.4,0,0,1,239.4,221.5Z"/>
    <g>
      <path class="b1bb1e44-6da9-49b5-a876-a7687cf1ea2f" d="M137,140a103.2,103.2,0,0,1,206,0"/>
      <g>
        <rect class="f1ad9c0f-6478-45ba-b5d1-48d3398759be" x="130.5" y="133.1" width="13.2" height="13.2" transform="translate(-7.4 271.7) rotate(-88)"/>
        <rect class="f1ad9c0f-6478-45ba-b5d1-48d3398759be" x="336.2" y="133.1" width="13.2" height="13.2" transform="translate(-4.7 12.1) rotate(-2)"/>
      </g>
    </g>
    <g>
      <g>
        <line class="b1bb1e44-6da9-49b5-a876-a7687cf1ea2f" x1="143.1" y1="42.5" x2="340.1" y2="42.5"/>
        <rect class="f1ad9c0f-6478-45ba-b5d1-48d3398759be" x="136.8" y="35.9" width="13.2" height="13.2"/>
        <rect class="f1ad9c0f-6478-45ba-b5d1-48d3398759be" x="333.2" y="35.9" width="13.2" height="13.2"/>
      </g>
      <rect class="f1ad9c0f-6478-45ba-b5d1-48d3398759be" x="232.8" y="35.7" width="13.3" height="13.3"/>
    </g>
    <line class="a62fe6bb-e73b-4904-aeec-027bac4f5033" x1="213.9" y1="395.2" x2="266.5" y2="395.2"/>
    <path class="a62fe6bb-e73b-4904-aeec-027bac4f5033" d="M239.3,412.6c0-.2.1-.3.1-.5q-.9-10.7-1.5-20.7v-2.2c-1.2-18-1.8-32.6-2-44.3q-.2-10.9,0-19.8v-2.8c.6-16.4,2.3-22.8,3.4-25.3a3.4,3.4,0,0,1,1.1-1.4c.9.7,3.9,4.9,4.2,30.6h0v3c0,3.7-.1,7.6-.2,11.8v.7c0,1.1-.1,2.2-.1,3.3-.4,11.1-1.1,24.8-2.4,41.5-.6,8.3-1.4,16.9-2.2,25.7a.6.6,0,0,0,.1.4l-.3,3A15.5,15.5,0,0,0,239.3,412.6Z"/>
  </g>
</svg>
