<?xml version="1.0" encoding="utf-8"?>
<!-- Generator: Adobe Illustrator 25.0.0, SVG Export Plug-In . SVG Version: 6.00 Build 0)  -->
<svg version="1.1" xmlns="http://www.w3.org/2000/svg" xmlns:xlink="http://www.w3.org/1999/xlink" x="0px" y="0px"
	 viewBox="0 0 798.7 647" style="enable-background:new 0 0 798.7 647;" xml:space="preserve">
<style type="text/css">
	.st0{fill:#F4C645;}
	.st1{fill:none;stroke:#F4C645;stroke-width:6;stroke-miterlimit:10;}
	.st2{fill:#F4D390;}
	.st3{fill:none;stroke:#F4D390;stroke-width:6;stroke-miterlimit:10;}
	.st4{fill:#00CCA5;}
	.st5{fill:#EF1F86;}
	.st6{fill:#00CDA6;}
	.st7{opacity:0.47;fill:#EAEAEA;}
	.st8{fill:#F7A894;}
	.st9{fill:#EAEAEA;}
	.st10{fill:#E1E1E1;}
	.st11{fill:#421120;}
	.st12{fill:#0075CD;}
	.st13{fill:#0090E8;}
	.st14{fill:#EFE6E9;}
	.st15{fill:#F3C6AF;stroke:#F7A78B;stroke-width:2;stroke-linecap:round;stroke-linejoin:round;stroke-miterlimit:10;}
	.st16{fill:#344B5E;stroke:#2D4451;stroke-width:2;stroke-miterlimit:10;}
	.st17{fill:#425D73;stroke:#2D4451;stroke-width:2;stroke-miterlimit:10;}
	.st18{fill:#402037;}
	.st19{fill:#F8C9B2;}
	.st20{fill:#F7A78B;}
	.st21{fill:none;stroke:#F7A78B;stroke-width:2;stroke-linecap:round;stroke-miterlimit:10;}
	.st22{fill:#3D2137;stroke:#3D2137;stroke-linejoin:round;stroke-miterlimit:10;}
	.st23{fill:#F4F4F4;}
	.st24{fill:#4D1F0D;}
	.st25{fill:#3D2137;stroke:#3D2137;stroke-miterlimit:10;}
	.st26{fill:none;stroke:#301725;stroke-width:2;stroke-linecap:round;stroke-linejoin:round;stroke-miterlimit:10;}
	.st27{fill:#425D73;}
	.st28{fill:none;stroke:#2D4451;stroke-width:2;stroke-miterlimit:10;}
	.st29{fill:#00B793;}
	.st30{fill:#00CDA6;stroke:#00B793;stroke-width:2;stroke-linecap:round;stroke-miterlimit:10;}
	.st31{fill:none;stroke:#00B793;stroke-width:2;stroke-linecap:round;stroke-miterlimit:10;}
	.st32{fill:none;stroke:#2D4451;stroke-width:2;stroke-linecap:round;stroke-miterlimit:10;}
	.st33{fill:none;stroke:#331A2D;stroke-miterlimit:10;}
	.st34{fill:#0F064F;}
	.st35{fill:#ABABBA;stroke:#ABABBA;stroke-width:2;stroke-miterlimit:10;}
	.st36{fill:#C1C1D6;stroke:#ABABBA;stroke-width:2;stroke-miterlimit:10;}
	.st37{fill:#ABABBA;}
</style>
<g id="figuras_fondo">
	<path class="st0" d="M228,216.9c46.3-34.8,66.9-129.4,164.7-129.4s168.5,98,168.5,98s211,38.9,211,161.1
		c-9.6,174.2-252.3,151-252.3,151s-47.4-8.5-105.3,0s-95.8,20.6-95.8,20.6s-183.5,68.5-262.5-64.4c-54.4-111.6,56-170.3,56-170.3
		S181.7,251.7,228,216.9z"/>
	<path class="st1" d="M221.2,213.2c48.1-36.1,69.5-134.4,171-134.4s175,101.8,175,101.8s219.1,40.4,219.1,167.3
		c-10,180.9-262,156.8-262,156.8s-49.3-8.8-109.4,0S315.4,526,315.4,526s-190.6,71.1-272.6-66.9c-56.5-115.9,58.1-176.9,58.1-176.9
		S173.1,249.3,221.2,213.2z"/>
	<path class="st2" d="M543.4,424.9c-36.8,33.3-55.9,124.2-133.5,124.2s-120.6-57.9-168.6-84.8c-47.9-26.8-173.7-46.1-173.7-162.9
		c0-148.5,176-144.3,176-144.3s102.8-4.2,148.8-12.3c46-8.1,75.5-41.3,128-50.1s156.7-15,182.2,83.8c25.5,98.8-70,168.8-70,168.8
		S580.1,391.7,543.4,424.9z"/>
	<path class="st3" d="M548.3,428.3c-38,34.3-57.6,128.1-137.8,128.1s-124.4-59.7-173.9-87.4c-49.5-27.7-179.2-47.6-179.2-168.1
		c0-153.2,181.6-148.9,181.6-148.9s106.1-4.3,153.5-12.7c47.4-8.4,77.8-42.6,132-51.6s161.6-15.5,188,86.4
		c26.4,101.9-72.3,174.2-72.3,174.2S586.3,394,548.3,428.3z"/>
</g>
<g id="circulos_externos">
	<circle class="st4" cx="117.7" cy="400.2" r="18.1"/>
	<path class="st4" d="M580.9,531.3c0,0,31.3,6.4,46.3,7.4s33.8-1.3,33.8-1.3s15.7,0.6,14.3,12.8c-1.4,12.3-16,12.3-16,12.3
		s-19.2-1.3-36.8-7.8C604.9,548.1,580.9,531.3,580.9,531.3z"/>
	<path class="st4" d="M560.8,537.6c0,0,16.1,13.4,24.5,18.6c8.4,5.2,19.9,9.8,19.9,9.8s8.9,5.2,4.3,11.9c-4.6,6.7-13.1,2.1-13.1,2.1
		s-10.7-6.7-18.8-16S560.8,537.6,560.8,537.6z"/>
	<circle class="st5" cx="201.9" cy="194.8" r="25.6"/>
	<circle class="st5" cx="632.7" cy="159.8" r="35.1"/>
	<circle class="st6" cx="667.8" cy="412.3" r="35.1"/>
	<circle class="st5" cx="292.6" cy="574.2" r="24.5"/>
	<path class="st4" d="M99.1,134.7c0,0-6.5-31.2-7.5-46.3s1.1-33.8,1.1-33.8s-0.6-15.7-12.9-14.3S67.6,56.4,67.6,56.4
		s1.3,19.2,8,36.8C82.2,110.7,99.1,134.7,99.1,134.7z"/>
	<path class="st4" d="M115.9,132.5c0,0,5-20.3,8.6-29.5c3.6-9.2,10.2-19.7,10.2-19.7s4.1-9.5-3.6-12.1c-7.7-2.6-11.8,6.1-11.8,6.1
		s-4.6,11.8-5.7,24S115.9,132.5,115.9,132.5z"/>
	<ellipse class="st7" cx="405.2" cy="617.8" rx="83.5" ry="4.8"/>
</g>
<g id="personaje">
	<path class="st8" d="M356,170.4c1.2,1.8,10.5,10.9,13.6,7.1c1.6-1.9,0.3-6.6,0.1-8.8c-0.4-3-1.1-6-2.3-8.9
		c-0.8-2.1-1.9-4.2-4.3-5.6c-4.7-2.8-9.4-0.3-10.5,3.3C351.4,161.9,353.4,166.5,356,170.4"/>
	<path class="st9" d="M333.7,282.9"/>
	<path class="st9" d="M523.8,494.2"/>
	<g>
		<g>
			<g>
				<path class="st10" d="M472.2,511.3c0,0,8.7-2.4,16.6-1c7.9,1.5,19,4,21.7,11.7c2.5,7-1.3,12.5-3.9,14.9
					c-4.2,3.8-15.2,5.9-28.4,3.5c-13.3-2.5-16.3-6-16.3-6L472.2,511.3z"/>
				<path class="st11" d="M483.6,510.8c6.1,0.3,12.3,2,17.7,4.9c4.2,2.3,8,7.1,6.7,12.2c-2.5,10.4-17.4,13.1-28.1,12.6l0.3-0.1
					c1.5,0,3-0.1,4.5-0.2c24.2-2.2,27.3-17,16.1-23.5c-8.2-4.7-18.3-6-27.6-5.2C474.1,511.4,478.3,510.5,483.6,510.8z"/>
				<path class="st12" d="M490.2,512.5l-3.2,0c0,0,0,0,0,0l-16-0.1l-16.1-0.6c-3.5-0.1-6.4,2.6-6.5,6.1l-0.1,1.8
					c0,0.3,0,0.6-0.1,0.8c-0.1,0.3-0.1,0.7-0.2,1c-1.1,3.4,0.7,7,4.1,8l23.5,7.4l10.9,3.4L490.2,512.5z"/>
				<path class="st13" d="M459.1,535.2c-3.4,0-16.8-3.5-22-5.9c-5.2-2.4-11.8-5.4-11.1-14.1c0.7-8.7,10.1-10.8,16.6-9
					c6.3,1.7,25.1,5.5,31.5,5.2c0,0,0,0,0,0c11.3-0.6,14.3,0.9,16,1.1c0,0-3.5,7.5-6.9,9.3c-3.4,1.8-26-1.7-28.1-3.4
					c-2.1-1.7-0.1-6.7-3.7-7.8c-3.6-1.1-11.6-3.7-14.1-3.9c-2.5-0.2-5.5-0.3-6.8,2c-1.4,2.3-2.3,5.6-2.4,8.2
					c-0.1,2.6,2.8,5.2,4.7,6.3c1.9,1.1,14.4,5.5,16.4,5.8c2,0.3,3.6-5.4,4.6-6.2c1-0.8,27.3,4.1,28.6,6.2c1.4,2.1,4.1,11.2,4.1,11.2
					l0,0c-2,0.2-4.2,0.7-6.5,0.7C471.2,540.5,462.6,535.2,459.1,535.2z"/>
				<path class="st14" d="M476.7,530.8c0.6-3,1.9-11,2.2-12.8c0.6-0.3,1.6-0.2,2,0.4c-0.3,2-1.6,9.7-2.2,12.8
					C478.1,531.6,477.1,531.4,476.7,530.8z"/>
				<path class="st14" d="M469.4,529.4c0.6-2.8,1.8-10.4,2.1-12.1c0.6-0.3,1.6-0.1,2,0.4c-0.3,1.9-1.5,9.2-2.1,12.1
					C470.8,530.1,469.9,529.9,469.4,529.4z"/>
				<path class="st14" d="M462.6,528.2c0.6-2.8,1.8-10.3,2.1-12c0.6-0.3,1.6-0.1,2,0.4c-0.3,1.9-1.5,9.2-2.1,12.1
					C464,528.9,463,528.7,462.6,528.2z"/>
				<path class="st14" d="M455.7,527.1c0.6-2.9,1.9-10.7,2.1-12.5c0.6-0.3,1.6-0.2,2,0.4c-0.3,1.9-1.5,9.5-2.1,12.5
					C457.1,527.8,456.2,527.6,455.7,527.1z"/>
			</g>
		</g>
	</g>
	<path class="st15" d="M622.7,297.2c1.9-0.6,4.1-0.2,4.1-0.2s1.2,1.3,4.1,1.6c2.9,0.3,28.6-1.2,28.6-1.2s2.1-1.1,2.3-2.6
		c0.3-1.5-2.5-2.3-2.5-2.3l-11-1.1l14.3-3.1c0,0,2.2-0.9,1.9-2.9c-0.3-2-2.8-1.9-2.8-1.9l-12.6,2.1l12.7-6c0,0,2.3-1,1.3-3.2
		c-1-2.2-3.1-1.4-3.1-1.4l-14.4,5.1c0,0,0.7-4.2,0.8-6.1c0.1-1.9-2.8-5.5-2.8-5.5s-4.8-4.9-6.8-4.7c-2,0.2-2.2,2.3-2.2,2.3
		s3.5,5.1,5.6,5.9c0.1,1.8-1.5,5.7-2.6,6c-1.2,0.3-4.7,0.5-6,0.4c-1.3-0.1-1.4-1.9-1.4-1.9s4.6-5.1,5.3-8c0.7-2.9-1.1-5.5-3.1-3.7
		c-3,4.1-6.8,6.4-9,8.8c-2.2,2.4-2.1,7.6-2.1,7.6l0.1,2.9l-3.4,1.6l1.7,13C619.8,298.9,620.8,297.9,622.7,297.2z"/>
	<path class="st15" d="M199.5,293.8c-1.9-0.7-4.1-0.3-4.1-0.3s-1.3,1.3-4.1,1.5c-2.9,0.2-28.5-2-28.5-2s-2-1.1-2.3-2.6
		s2.5-2.3,2.5-2.3l11-0.8l-14.2-3.5c0,0-2.2-1-1.8-3s2.9-1.8,2.9-1.8l12.5,2.5l-12.6-6.4c0,0-2.3-1-1.3-3.2s3.1-1.3,3.1-1.3
		l14.2,5.6c0,0-0.6-4.2-0.6-6.1c0-1.9,3-5.5,3-5.5s4.9-4.8,7-4.5c2,0.3,2.2,2.3,2.2,2.3s-3.7,5-5.7,5.7c-0.1,1.8,1.3,5.7,2.4,6.1
		c1.1,0.3,4.7,0.6,6,0.6c1.3,0,1.5-1.9,1.5-1.9s-4.5-5.2-5-8.1c-0.6-2.9,1.3-5.5,3.2-3.6c2.9,4.1,6.6,6.6,8.7,9.1
		c2.1,2.5,1.9,7.7,1.9,7.7l-0.2,2.9l3.4,1.7l-2.1,12.9C202.3,295.5,201.4,294.4,199.5,293.8z"/>
	<path class="st16" d="M472.8,409.1c0,0,3.4,6.8,9.9,8c24.4,4.3,83.9,15.4,87,37.7c4,28.3-45.3,34.9-45.3,34.9l-113.8-18.4l-19,4.2
		l-104-31.4c0,0-5.7,3.7-22.8,1.9c21.5-20.6,72.5-26.5,72.5-26.5l112.5-5.5L472.8,409.1z"/>
	<path class="st17" d="M259.9,453.3c7.9-24.1,82.8,6.6,82.8,6.6s90.7,28,103.6,35.3c15.9,32.5,0,37.5,0,37.5s-89.8-13.9-111.9-19.5
		S252,477.5,259.9,453.3z"/>
	<path class="st18" d="M433.6,105.8c0,0,4.6,9.2,11.7,13.5c11.3,8.6,8.5,14,8.5,14s-2.2,9.6-2.1,20.6c0,4.7,1.8,8.6,0.9,15.9
		c-1.4,11.1-9.5,23.8-14.5,29c-5.9,6.1-8.5,8.5-8.5,8.5l0.2,15.3l27.4,21.2l21.5,3.1c0,0,2.2-35.9,1.8-39.8
		c-2.5-22.2-11.7-24-14.2-38.4c-2.5-14.4-1.1-31.2-2.8-46.2c-2.4-17.3-8.2-24.3-8.2-24.3s-4.2-10.4-21.4-18.7
		C424.8,76.2,433.6,105.8,433.6,105.8z"/>
	<path class="st19" d="M443.3,234.1c-4.1-1.6-9.2-3.8-13.5-6.4c-0.5-9.8-0.3-20,0.4-29.7c0.1-1-0.8-1.8-1.6-1.8
		c-10.8,0.2-21.6,0.4-32.4,0.6c-0.3,0-0.5,0.1-0.7,0.2c-0.6,0.2-1,0.8-0.9,1.6c0.5,9.2,0.5,19-0.5,28.3l-0.2,0.1
		c-3.3,2.1-7.3,4.1-12.6,6.5l-7.6,6.9l37.8,30.3l41-28.3L443.3,234.1z"/>
	<path class="st20" d="M393.9,191.9l0.2,3c0.2,2.9,0.5,7.4,0.4,12.2l0,0.9l0.5,0.6c2.6,2.8,5,4.9,7.4,6.7c3.5,2.5,6.7,3.5,9.7,3.5
		c7,0,12.6-5.5,16.6-10.4l0.4-0.5l0.4-0.5l0-0.8c0-2.9,0.2-7.5,0.6-13l0.2-2.1L393.9,191.9z"/>
	<path class="st8" d="M360,173.5c1.2,1.6,10.1,9.8,13.1,6.4c1.5-1.7,0.3-6,0.1-7.9c-0.4-2.7-1.1-5.4-2.2-8c-0.8-1.9-1.8-3.8-4.1-5.1
		c-4.5-2.5-9-0.2-10.1,3C355.6,165.9,357.5,170,360,173.5"/>
	<path class="st8" d="M464.9,170.4c-1.3,1.8-11.2,10.9-14.6,7.1c-1.7-1.9-0.4-6.6-0.1-8.8c0.4-3,1.2-6,2.4-8.9
		c0.9-2.1,2-4.2,4.6-5.6c5-2.8,10-0.3,11.2,3.3C469.8,161.9,467.7,166.5,464.9,170.4"/>
	<path class="st19" d="M406.5,75.6c-45.2,0-43.8,69.8-43.8,69.8c1,10,3.3,22,7.3,31.2c5.6,12.6,14.6,25.4,28.6,32.7
		c12.6,6.6,23.4,4,32.8-4.4c16.2-11.1,24-39.8,25-43.3c1.6-5.5,2.8-11.4,3.4-17.3C459.8,144.2,468.1,75.6,406.5,75.6"/>
	<path class="st21" d="M410.7,161.9c-0.3,3.5-3.1,11.5-3.1,12.9c0,4.6,5.4,4.6,5.4,4.6"/>
	<path class="st22" d="M374.4,141.3c0,0,8-4.3,9.3-4.3s16.3,2.1,16.3,2.1s2.1-2.1-1.1-3.2s-11.7-3.2-14.9-2.1
		C380.8,134.9,374.4,141.3,374.4,141.3"/>
	<path class="st23" d="M465.2,164.7l2.7,2.7c2.7,0,0-2.7,0-2.7l-2.7-2.7C462.4,161.9,465.2,164.7,465.2,164.7"/>
	<path class="st24" d="M368.7,108c0,0,2-3.9-2.9-3.9h-4.9c0,0,4.9-2.5,7.4-2.5c0-2.5,2.5-7.4,2.5-7.4v4.9c0,4.9,5.6,4,5.6,4
		L368.7,108z"/>
	<path class="st21" d="M400.1,189.2c0,0,5.7,2.1,11.9,2.1c6.2,0,13.4-5.3,13.4-5.3"/>
	<path class="st21" d="M407.6,195.7c1.4,0.2,2.9,0.3,4.4,0.3c1.9,0,3.9-0.5,5.7-1.2"/>
	<path class="st9" d="M411.7,434c27.8-7,36.8-194.8,36.8-194.8s-23.8,17.6-37.3,17.6s-40-18.8-40-18.8S383.9,441,411.7,434z"/>
	<path class="st25" d="M447.7,141.8c0,0-8-4.3-9.3-4.3c-1.4,0-16.3,2.1-16.3,2.1s-2.1-2.1,1.1-3.2s11.7-3.2,14.9-2.1
		C441.3,135.3,447.7,141.8,447.7,141.8"/>
	<path class="st26" d="M382.1,154.4c0,0,1.4,3.9,5.4,3.9c4.1,0,5.4-3.9,5.4-3.9"/>
	<path class="st26" d="M428.5,154.4c0,0,1.4,3.9,5.4,3.9c4.1,0,5.4-3.9,5.4-3.9"/>
	<g>
		<g>
			<g>
				<path class="st10" d="M365,508c0,0-8.7-2.4-16.6-1c-7.9,1.5-19,4-21.7,11.7c-2.5,7,1.3,12.5,3.9,14.9c4.2,3.8,15.2,5.9,28.4,3.5
					c13.3-2.5,16.3-6,16.3-6L365,508z"/>
				<path class="st11" d="M353.5,507.5c-6.1,0.3-12.3,2-17.7,4.9c-4.2,2.3-8,7.1-6.7,12.2c2.5,10.4,17.4,13.1,28.1,12.6l-0.3-0.1
					c-1.5,0-3-0.1-4.5-0.2c-24.2-2.2-27.3-17-16.1-23.5c8.2-4.7,18.3-6,27.6-5.2C363,508,358.9,507.2,353.5,507.5z"/>
				<path class="st12" d="M347,509.1l3.2,0c0,0,0,0,0,0l16-0.1l16.1-0.6c3.5-0.1,6.4,2.6,6.5,6.1l0.1,1.8c0,0.3,0,0.6,0.1,0.8
					c0.1,0.3,0.1,0.7,0.2,1c1.1,3.4-0.7,7-4.1,8l-23.5,7.4l-10.9,3.4L347,509.1z"/>
				<path class="st13" d="M378,531.8c3.4,0,16.8-3.5,22-5.9c5.2-2.4,11.8-5.4,11.1-14.1c-0.7-8.7-10.1-10.8-16.6-9
					c-6.3,1.7-25.1,5.5-31.5,5.2c0,0,0,0,0,0c-11.3-0.6-14.3,0.9-16,1.1c0,0,3.5,7.5,6.9,9.3c3.4,1.8,26-1.7,28.1-3.4
					c2.1-1.7,0.1-6.7,3.7-7.8c3.6-1.1,11.6-3.7,14.1-3.9c2.5-0.2,5.5-0.3,6.8,2c1.4,2.3,2.3,5.6,2.4,8.2c0.1,2.6-2.8,5.2-4.7,6.3
					c-1.9,1.1-14.4,5.5-16.4,5.8c-2,0.3-3.6-5.4-4.6-6.2c-1-0.8-27.3,4.1-28.6,6.2c-1.4,2.1-4.1,11.2-4.1,11.2l0,0
					c2,0.2,4.2,0.7,6.5,0.7C365.9,537.1,374.5,531.9,378,531.8z"/>
				<path class="st14" d="M360.4,527.5c-0.6-3-1.9-11-2.2-12.8c-0.6-0.3-1.6-0.2-2,0.4c0.3,2,1.6,9.7,2.2,12.8
					C359,528.2,360,528,360.4,527.5z"/>
				<path class="st14" d="M367.7,526c-0.6-2.8-1.8-10.4-2.1-12.1c-0.6-0.3-1.6-0.1-2,0.4c0.3,1.9,1.5,9.2,2.1,12.1
					C366.3,526.7,367.3,526.6,367.7,526z"/>
				<path class="st14" d="M374.6,524.9c-0.6-2.8-1.8-10.3-2.1-12c-0.6-0.3-1.6-0.1-2,0.4c0.3,1.9,1.5,9.2,2.1,12.1
					C373.2,525.5,374.2,525.4,374.6,524.9z"/>
				<path class="st14" d="M381.4,523.7c-0.6-2.9-1.9-10.7-2.1-12.5c-0.6-0.3-1.6-0.2-2,0.4c0.3,1.9,1.5,9.5,2.1,12.5
					C380,524.5,381,524.3,381.4,523.7z"/>
			</g>
		</g>
	</g>
	<path class="st27" d="M567.1,445c-15-24.7-83.3,9.9-83.3,9.9s-63.2,27.4-90.8,40.3c-1.5,0.7-0.8-5-2.1-4.4
		c-4.1,2-8.1,9.7-10.6,12.7c-1.2,23.1,12.7,28,12.7,28s86.9-15.2,108.5-22.8C523.1,501.1,584,472.3,567.1,445z"/>
	<path class="st28" d="M544.3,453.6c0,0,0-2.5,5.3-6.2"/>
	<path class="st28" d="M566.4,446c-15.2-24.8-83.6,9.4-83.6,9.4s-62.9,27.3-89.4,39.7c-1.8,0.8-0.7-5-2.1-4.3
		c-2.5,1.3-11,12.6-11,12.6s-1,23.6,11.8,28c7.5-0.3,87.1-16.5,108.7-24S583.6,473.4,566.4,446z"/>
	<path class="st29" d="M464.3,243.8c0,0-28.2,30.1-46.5,66.3c0.6-14.1,29.9-68.7,29.9-68.7l-18-13.6l-0.3-17.1
		c0,0,16.5-3.1,27.5,11.6C467.9,237,464.3,243.8,464.3,243.8"/>
	<path class="st30" d="M209.9,282.9c0,0-1.6,3.2-1.3,6.8"/>
	<path class="st31" d="M292.6,277.9c0,0-1.3-0.9-3.3,3.1c-2.1,4,0.1,8.7,0.1,8.7"/>
	<path class="st32" d="M393.4,501.9c-1.8-5.9-0.7-8.6-0.7-8.6"/>
	<path class="st18" d="M386.4,106.9c0,0-2.4,12.4-9.5,16.8c-11.6,9.2-9.9,19.3-9.9,19.3s2,19.8,2.9,27.2c1.4,11.4,8.6,22,13.6,27.3
		c5.9,6.3,11.7,9.7,11.7,9.7s-0.9,18.6-1.6,20.2c-0.8,1.6-35.1,15.3-35.1,15.3l-17.5,5.4c0,0-2.4-33.3-1.8-38.1
		c2.5-22.9,13.4-23.9,15.9-38.8c2.5-14.8-4.7-34.6-2.1-51.7c3.4-16.5,11.3-21.7,14.8-24.3c0.7-0.5,0.7-0.6,1.5-1
		c-0.5-3.4-10.2-3.5-10.2-3.5s6-5.3,14.7,0.5c0.5,0.6-4.2-3.9,0.1-15c0.2-0.8,0.1,10.8,3.6,10.6c1.5-3.7,8.9-15.3,26.7-15.3
		c27.1,0,46.5,20.3,46.5,20.3s17.4,26,12.6,48.3c-3,12.1-26,85.6-26,85.6s15-70.2,9.2-82.4c-3.5-8.1-15.1-28-29.5-34.2
		C406,104.1,386.4,106.9,386.4,106.9z"/>
	<path class="st33" d="M370.4,109.6c0,0-11.5,8.9-12.7,24.2c-1.3,15.3,4,29,2,38.3c0,0-2,13.7-2,19.9c-1.3,26.9,5.8,48.4,5.8,48.4"
		/>
	<path class="st34" d="M420.5,144.1c-2.7,0.9-5.8,2.1-8.5,2.1c-2.7,0-5.8-1.2-8.5-2.1c-7.2-2.3-25.2-3.8-36.6-0.2l0.3,6.1
		c0,0,2.1-0.4,2.8,1.8c0.7,2.2,2.3,11.4,5.2,14.9c3.6,4.4,11.4,4.6,16.7,4.4c7.1-0.3,11.7-3.4,13.7-8.5c2-5.2,3.1-9.6,4.4-11
		c0.7-0.8,1.5-0.8,2.1-0.8c0.6,0,1.4,0.1,2.1,0.8c1.3,1.4,2.4,5.8,4.4,11c2,5.2,6.6,8.2,13.7,8.5c5.3,0.2,13.1,0,16.7-4.4
		c2.9-3.6,4.5-12.7,5.2-14.9c0.7-2.2,2.8-1.8,2.8-1.8l0.3-6.1C445.7,140.3,427.7,141.8,420.5,144.1 M402.4,162.5
		c-1.9,3.5-5.1,5.2-9.9,5.8c-4.8,0.6-10.5-0.3-13.4-2c-2.5-1.5-3.8-6.1-4.4-8.9c-0.6-2.8-1.7-8.9,1.3-10.9c3-2,10.4-2.1,15.4-1.8
		c3.7,0.2,11.8,1.2,13.3,4C406.3,151.5,404,159.7,402.4,162.5 M449.4,157.4c-0.6,2.8-1.8,7.5-4.4,8.9c-2.9,1.7-8.6,2.6-13.4,2
		c-4.8-0.6-8-2.4-9.9-5.8c-1.5-2.8-3.8-11-2.3-13.8c1.5-2.8,9.6-3.8,13.3-4c4.9-0.3,12.4-0.1,15.4,1.8
		C451.1,148.6,450,154.6,449.4,157.4"/>
	<path class="st30" d="M355.6,272c1.7,5.5-4.8,51.2-4.8,51.2s-20.7,75.6-14.8,89.8s14.6,17.2,30.2,21.8s34.3,1.3,34.3,1.3l6.6-129.5
		l-49.5-62.8c-5.6-7.6-46.1,27.1-63.2,33.4c-1.4,0.5-2.7,0.9-3.8,1c-15.4,1.3-67.5,0.5-73.5,0.5s-6.1,3.8-7.3,3.8
		c-1.9,0.1-3.5,0-5.5-0.1c-3.8,4.2-2.1,13.1-2.1,13.1s3.6,2.1,5.9,2.6c1.1,0.2,0.4,3.4,6.3,5.2c5.8,1.8,69.1,15.1,88,13.8
		c19.2-1.3,43.5-17.3,51.9-23.1"/>
	<path class="st29" d="M355.6,243.8c0,0,31.3,30.1,51.6,66.3c-0.7-14.1-33.3-70.3-33.3-70.3l19.9-12.6L395,211
		c0,0-18.2-3.3-30.4,10.4c-0.3,0.3-0.5,0.6-0.8,0.9C351.6,237,355.6,243.8,355.6,243.8"/>
	<path class="st30" d="M464.8,271c-7.1,27.1,12.3,110.6,12.3,110.6s13.7,26.2,5.3,32.9c-19.3,17.8-51.2,20.3-60.9,21.7
		c-11.8,0.1-10.6-26.3-10.6-26.3s7-97.7,8.1-102.2c17.4-44.3,44.8-62.5,44.8-62.5c6.3-8.1,55.4,33.3,69.3,34.9
		c13.4,1.6,55.1,3.4,75.7,4.3c4.2,0,4.1,1.9,5.5,2c4.5,0.2,4.4-1.3,6.2-1.5c4.8,3.2,3.3,13,3.3,13s-1.9,0-6,1.1
		c-1.2,0.3-2.1,2.1-5.8,3.7s-73.7,17.8-91.9,16c-23.6-2.3-56.5-24.5-56.5-24.5"/>
	<g>
		<g>
			<path class="st9" d="M374,285c-0.1,0-0.2,0-0.2,0c-0.8-0.1-1.3-1-1.2-1.9c0-0.2,2.9-20.3,0.1-27.9c-0.3-0.8,0-1.8,0.8-2.2
				c0.7-0.4,1.6,0,1.9,0.9c3.1,8.5,0.2,28.9,0.1,29.8C375.3,284.5,374.7,285,374,285z"/>
		</g>
		<polygon class="st9" points="373.9,286.5 373.5,286.5 373.7,284 374.2,284 		"/>
		<g>
			<path class="st9" d="M450.7,285c-0.7,0-1.3-0.6-1.4-1.4c-0.1-0.9-3-21.3,0.1-29.8c0.3-0.8,1.2-1.2,1.9-0.9
				c0.7,0.4,1.1,1.3,0.8,2.2c-2.8,7.6,0.1,27.7,0.1,27.9c0.1,0.9-0.4,1.8-1.2,1.9C450.8,285,450.8,285,450.7,285z"/>
		</g>
		<polygon class="st9" points="450.8,286.3 451.2,286.2 451,283.7 450.5,283.7 		"/>
	</g>
</g>
<g id="pc">
	<g>
		<path class="st35" d="M475.9,432.7H340.6c-1.2,0-2.2,1-2.2,2.2v2.2c0,1.2,1,2.2,2.2,2.2h135.3c1.2,0,2.2-1,2.2-2.2v-2.2
			C478.1,433.7,477.1,432.7,475.9,432.7z"/>
		<path class="st36" d="M467.5,342H351.3c-6.7,0-12.3,2.2-12.1,11.9l1.8,79.5h134.6l4.1-79.5C479.6,344.4,474.2,342,467.5,342z"/>
		<path class="st37" d="M409.1,382.1c-0.8,0-1.6,0.1-2.4,0.3c0.7,1.3,1.1,2.7,1.1,4.3c0,3.7-2.2,6.8-5.4,8.2
			c-0.3,0.3-0.6,0.5-0.9,0.8c1.6,2.5,4.3,4.2,7.5,4.2c4.9,0,8.9-4,8.9-8.9C418,386.1,414,382.1,409.1,382.1z"/>
	</g>
</g>
</svg>
