<svg xmlns="http://www.w3.org/2000/svg" width="479" height="482" viewBox="0 0 479 482">
  <defs>
    <style>
      .b894b353-955c-46bd-9673-9f7bc098f331 {
        fill: #0f064f;
      }

      .f436d7c6-63e9-450b-a74d-77af3e507b91 {
        fill: #130d63;
      }

      .b7964c8e-2aca-487c-8eed-8f803061c694 {
        fill: #131375;
      }

      .e05c947e-84d6-4f8a-bf22-26ada99c890d, .f3fc6955-a1ac-4272-95ef-e009366c2f65 {
        fill: #f4c645;
      }

      .b87ed88b-1b0c-4f3c-8998-3522c8b97880, .ba3f7a5d-4848-4f49-8c88-13b71490c0f9, .bd1afeba-9a36-46ab-9fca-08f7ff85d6fd, .e05c947e-84d6-4f8a-bf22-26ada99c890d, .e231df90-ef90-4656-94c9-84dfbd593f9f, .e5968c22-0690-4f7a-a767-986b54b92ca4, .f3ae1bd5-e855-41e7-80b1-b491d6528857 {
        stroke: #0f064f;
      }

      .ba3f7a5d-4848-4f49-8c88-13b71490c0f9, .bd1afeba-9a36-46ab-9fca-08f7ff85d6fd, .e05c947e-84d6-4f8a-bf22-26ada99c890d {
        stroke-linecap: round;
        stroke-linejoin: round;
        stroke-width: 10px;
      }

      .ba3f7a5d-4848-4f49-8c88-13b71490c0f9, .e05c947e-84d6-4f8a-bf22-26ada99c890d, .e231df90-ef90-4656-94c9-84dfbd593f9f, .f3fc6955-a1ac-4272-95ef-e009366c2f65, .fe2d610a-2a7b-4903-85c5-54a29dfd667f {
        fill-rule: evenodd;
      }

      .e231df90-ef90-4656-94c9-84dfbd593f9f, .f3ae1bd5-e855-41e7-80b1-b491d6528857 {
        fill: #00cca5;
      }

      .b87ed88b-1b0c-4f3c-8998-3522c8b97880, .e231df90-ef90-4656-94c9-84dfbd593f9f, .e5968c22-0690-4f7a-a767-986b54b92ca4, .f3ae1bd5-e855-41e7-80b1-b491d6528857 {
        stroke-miterlimit: 10;
      }

      .e231df90-ef90-4656-94c9-84dfbd593f9f, .e5968c22-0690-4f7a-a767-986b54b92ca4, .f3ae1bd5-e855-41e7-80b1-b491d6528857 {
        stroke-width: 4px;
      }

      .bd1afeba-9a36-46ab-9fca-08f7ff85d6fd, .e5968c22-0690-4f7a-a767-986b54b92ca4 {
        fill: none;
      }

      .ba3f7a5d-4848-4f49-8c88-13b71490c0f9 {
        fill: #fff;
      }

      .b87ed88b-1b0c-4f3c-8998-3522c8b97880 {
        fill: #ef1f86;
        stroke-width: 3px;
      }

      .e1739774-bb96-4304-9be9-1e9f6b8786d9, .fe2d610a-2a7b-4903-85c5-54a29dfd667f {
        fill: #402431;
      }
    </style>
  </defs>
  <g id="a3b0d25e-b8ae-4cab-b286-2c59fcd745e1" data-name="Capa 2">
    <circle class="b894b353-955c-46bd-9673-9f7bc098f331" cx="239.5" cy="243.5" r="239.5"/>
    <circle class="f436d7c6-63e9-450b-a74d-77af3e507b91" cx="239.5" cy="243.5" r="182"/>
    <circle class="b7964c8e-2aca-487c-8eed-8f803061c694" cx="239.5" cy="243.5" r="134.3"/>
  </g>
  <g id="bde8d1e8-fbf7-4c1c-9a65-d75bfd8e41c0" data-name="Capa 1">
    <path class="e05c947e-84d6-4f8a-bf22-26ada99c890d" d="M115.8,93.2H361.5V413.3H115.8V93.2Z"/>
    <polygon class="f3fc6955-a1ac-4272-95ef-e009366c2f65" points="115.8 93.2 361.4 93.2 361.4 143.5 361.4 158 361.4 413.3 166.9 413.3 115.8 363.3 115.8 93.2"/>
    <polygon class="f3ae1bd5-e855-41e7-80b1-b491d6528857" points="166.1 413.3 115.8 363.1 166.1 363.1 166.1 413.3"/>
    <path class="bd1afeba-9a36-46ab-9fca-08f7ff85d6fd" d="M161.9,99.3a11.6,11.6,0,0,1,.8,4.2,11,11,0,0,1-11,11,11.2,11.2,0,0,1-8.9-4.5,11.6,11.6,0,0,1-.8-4.2,11,11,0,0,1,19.9-6.5Z"/>
    <path class="bd1afeba-9a36-46ab-9fca-08f7ff85d6fd" d="M205.3,99.3a11.6,11.6,0,0,1,.8,4.2,11,11,0,0,1-19.8,6.5,11.6,11.6,0,0,1-.8-4.2,11,11,0,0,1,19.8-6.5Z"/>
    <path class="bd1afeba-9a36-46ab-9fca-08f7ff85d6fd" d="M248.8,99.3a11.6,11.6,0,0,1,.8,4.2,11,11,0,0,1-11,11,11.3,11.3,0,0,1-8.9-4.5,11.6,11.6,0,0,1-.8-4.2,11,11,0,0,1,11-11A11.2,11.2,0,0,1,248.8,99.3Z"/>
    <path class="bd1afeba-9a36-46ab-9fca-08f7ff85d6fd" d="M325.5,92.5a11,11,0,1,1-10.9,11A10.8,10.8,0,0,1,325.5,92.5Z"/>
    <path class="e231df90-ef90-4656-94c9-84dfbd593f9f" d="M151.8,73.7h0A5.3,5.3,0,0,1,157,79v25.4a5.3,5.3,0,0,1-5.2,5.3h0a5.3,5.3,0,0,1-5.3-5.3V79A5.3,5.3,0,0,1,151.8,73.7Z"/>
    <path class="e231df90-ef90-4656-94c9-84dfbd593f9f" d="M195.1,73.7h0a5.3,5.3,0,0,1,5.3,5.3v25.4a5.3,5.3,0,0,1-5.3,5.3h0a5.3,5.3,0,0,1-5.2-5.3V79A5.3,5.3,0,0,1,195.1,73.7Z"/>
    <path class="e231df90-ef90-4656-94c9-84dfbd593f9f" d="M238.6,73.7h0a5.3,5.3,0,0,1,5.3,5.3v25.4a5.3,5.3,0,0,1-5.3,5.3h0a5.3,5.3,0,0,1-5.3-5.3V79A5.3,5.3,0,0,1,238.6,73.7Z"/>
    <path class="e231df90-ef90-4656-94c9-84dfbd593f9f" d="M325.5,73.7h0a5.3,5.3,0,0,1,5.3,5.3v25.4a5.3,5.3,0,0,1-5.3,5.3h0a5.3,5.3,0,0,1-5.2-5.3V79A5.3,5.3,0,0,1,325.5,73.7Z"/>
    <path class="ba3f7a5d-4848-4f49-8c88-13b71490c0f9" d="M239.7,177.2l92.6,92.6.8.8-.8.9-92.6,92.6-.9.8-.8-.8-92.6-92.6-.9-.9.9-.8L238,177.2l.8-.9.9.9Z"/>
    <path class="e231df90-ef90-4656-94c9-84dfbd593f9f" d="M234.8,181c-5.1,25.6-16.5,47-29.8,68.1s-9,43.8,9.1,64.1h50.4c18.2-20.3,22.3-42.9,9.1-64.1s-25.2-42.3-30.2-67.9a8.1,8.1,0,0,0,5.8-7.2c.3-3.6-3.4-7.5-7.7-7.5v63.3a6.2,6.2,0,0,1,4.4,5.8v50.1a6,6,0,0,1-6.1,5.9h-.9a6,6,0,0,1-6.1-5.9V235.6a6.1,6.1,0,0,1,4.4-5.8V166.5c-4.3,0-7.9,4-7.8,7.5S231.5,179.7,234.8,181Z"/>
    <path class="bd1afeba-9a36-46ab-9fca-08f7ff85d6fd" d="M238.8,169.1a9,9,0,1,1,0,17.9,8.9,8.9,0,0,1-8.9-8.9A9,9,0,0,1,238.8,169.1Z"/>
    <path class="bd1afeba-9a36-46ab-9fca-08f7ff85d6fd" d="M214.6,313.1H264a1.4,1.4,0,0,1,1.4,1.4v8.3a1.4,1.4,0,0,1-1.4,1.4H214.6a1.5,1.5,0,0,1-1.5-1.4v-8.3A1.5,1.5,0,0,1,214.6,313.1Z"/>
    <rect class="b87ed88b-1b0c-4f3c-8998-3522c8b97880" x="215" y="324.3" width="48.6" height="89.02"/>
    <rect class="e1739774-bb96-4304-9be9-1e9f6b8786d9" x="182.2" y="176.6" width="113.5" height="2.96"/>
    <path class="fe2d610a-2a7b-4903-85c5-54a29dfd667f" d="M182.2,173.8A4.2,4.2,0,1,1,178,178,4.1,4.1,0,0,1,182.2,173.8Z"/>
    <path class="fe2d610a-2a7b-4903-85c5-54a29dfd667f" d="M295.6,173.8a4.2,4.2,0,1,1-4.2,4.2A4.2,4.2,0,0,1,295.6,173.8Z"/>
    <path class="bd1afeba-9a36-46ab-9fca-08f7ff85d6fd" d="M146,262.6a8.1,8.1,0,1,1-8.1,8A8,8,0,0,1,146,262.6Z"/>
    <path class="bd1afeba-9a36-46ab-9fca-08f7ff85d6fd" d="M292.3,99.3a11.6,11.6,0,0,1,.8,4.2,11,11,0,0,1-11,11,11.2,11.2,0,0,1-8.9-4.5,11.6,11.6,0,0,1-.8-4.2,11,11,0,0,1,11-11A11.3,11.3,0,0,1,292.3,99.3Z"/>
    <path class="e231df90-ef90-4656-94c9-84dfbd593f9f" d="M282.1,73.7h0a5.2,5.2,0,0,1,5.2,5.3v25.4a5.2,5.2,0,0,1-5.2,5.3h0a5.3,5.3,0,0,1-5.3-5.3V79A5.3,5.3,0,0,1,282.1,73.7Z"/>
    <path class="bd1afeba-9a36-46ab-9fca-08f7ff85d6fd" d="M332,262.6a8.1,8.1,0,1,1-8.1,8A8.1,8.1,0,0,1,332,262.6Z"/>
    <g>
      <line class="e5968c22-0690-4f7a-a767-986b54b92ca4" x1="181" y1="178" x2="296.7" y2="178"/>
      <path class="b894b353-955c-46bd-9673-9f7bc098f331" d="M181.2,181.3A3.2,3.2,0,0,1,178,178a3.2,3.2,0,0,1,3.2-3.2,3.2,3.2,0,0,1,3.3,3.2A3.3,3.3,0,0,1,181.2,181.3Z"/>
      <path class="b894b353-955c-46bd-9673-9f7bc098f331" d="M296.5,181.3a3.3,3.3,0,0,0,3.3-3.3,3.2,3.2,0,0,0-3.3-3.2,3.2,3.2,0,0,0-3.2,3.2A3.2,3.2,0,0,0,296.5,181.3Z"/>
    </g>
  </g>
</svg>
