<?xml version="1.0" encoding="utf-8"?>
<!-- Generator: Adobe Illustrator 25.0.0, SVG Export Plug-In . SVG Version: 6.00 Build 0)  -->
<svg version="1.1" xmlns="http://www.w3.org/2000/svg" xmlns:xlink="http://www.w3.org/1999/xlink" x="0px" y="0px"
	 viewBox="0 0 479 482" style="enable-background:new 0 0 479 482;" xml:space="preserve">
<style type="text/css">
	.st0{fill:#0F064F;}
	.st1{fill:#130D63;}
	.st2{fill:#131375;}
	.st3{fill:#F4C645;}
	.st4{fill:#EF1F86;}
	.st5{fill:#00CCA5;}
	.st6{fill:#00CCA5;stroke:#0F064F;stroke-width:4;stroke-miterlimit:10;}
	.st7{fill:none;stroke:#0F064F;stroke-width:10;stroke-miterlimit:10;}
	.st8{fill:none;stroke:#0F064F;stroke-width:10;stroke-linecap:round;stroke-miterlimit:10;}
	.st9{fill:none;stroke:#0F064F;stroke-width:4;stroke-miterlimit:10;}
	.st10{fill:none;stroke:#FFFFFF;stroke-width:10;stroke-miterlimit:10;}
	.st11{fill:none;stroke:#FFFFFF;stroke-width:7;stroke-miterlimit:10;}
	.st12{fill:none;stroke:#FFFFFF;stroke-width:4;stroke-miterlimit:10;}
	.st13{fill:#FFFFFF;}
	.st14{fill:none;}
	.st15{fill:#FFFFFF;stroke:#EF1F86;stroke-width:3;stroke-miterlimit:10;}
	.st16{fill-rule:evenodd;clip-rule:evenodd;fill:#EF1F86;}
	
		.st17{fill-rule:evenodd;clip-rule:evenodd;fill:#00CCA5;stroke:#0F064F;stroke-width:4;stroke-linejoin:round;stroke-miterlimit:10;}
	.st18{fill-rule:evenodd;clip-rule:evenodd;fill:#0F064F;}
	.st19{fill:none;stroke:#0F064F;stroke-width:6;stroke-linecap:round;stroke-miterlimit:10;}
	.st20{fill:none;stroke:#0F064F;stroke-width:10;stroke-linecap:round;stroke-linejoin:round;stroke-miterlimit:10;}
	
		.st21{fill-rule:evenodd;clip-rule:evenodd;fill:#F4C645;stroke:#0F064F;stroke-width:10;stroke-linecap:round;stroke-linejoin:round;stroke-miterlimit:10;}
	.st22{fill-rule:evenodd;clip-rule:evenodd;fill:#F4C645;}
	.st23{fill-rule:evenodd;clip-rule:evenodd;fill:#00CCA5;stroke:#0F064F;stroke-width:4;stroke-miterlimit:10;}
	
		.st24{fill-rule:evenodd;clip-rule:evenodd;fill:#FFFFFF;stroke:#0F064F;stroke-width:10;stroke-linecap:round;stroke-linejoin:round;stroke-miterlimit:10;}
	.st25{fill-rule:evenodd;clip-rule:evenodd;fill:#EF1F86;stroke:#0F064F;stroke-width:3;stroke-miterlimit:10;}
	.st26{fill-rule:evenodd;clip-rule:evenodd;fill:#402431;}
	.st27{fill:#EF1F86;stroke:#0F064F;stroke-width:3;stroke-miterlimit:10;}
	.st28{fill:none;stroke:#EF1F86;stroke-width:10;stroke-linecap:round;stroke-miterlimit:10;}
	.st29{fill:none;stroke:#FFFFFF;stroke-width:10;stroke-linecap:round;stroke-miterlimit:10;}
	.st30{fill:none;stroke:#0F064F;stroke-width:3;stroke-linecap:round;stroke-linejoin:round;stroke-miterlimit:10;}
</style>
<g id="Capa_2">
	<circle class="st0" cx="239.5" cy="243.5" r="239.5"/>
	<circle class="st1" cx="239.5" cy="243.5" r="182"/>
	<circle class="st2" cx="239.5" cy="243.5" r="134.3"/>
</g>
<g id="Capa_1">
	<polygon class="st6" points="171.5,383.8 306.6,383.8 311.7,391.6 311.7,395.5 166.4,395.5 166.4,391.6 	"/>
	<rect x="194.2" y="341.2" class="st3" width="89.7" height="42.2"/>
	<path class="st3" d="M85.8,101.4h306.6c6.4,0,11.7,5.3,11.7,11.7v216.4c0,6.4-5.3,11.7-11.7,11.7H85.8c-6.4,0-11.7-5.3-11.7-11.7
		V113C74.1,106.6,79.4,101.4,85.8,101.4z"/>
	<path class="st14" d="M85.8,105.7h306.6c4,0,7.4,3.3,7.4,7.4v202.6H78.4V113C78.4,108.9,81.8,105.7,85.8,105.7z"/>
	<rect x="90.8" y="120.4" class="st15" width="296.4" height="181"/>
	<rect x="90.9" y="120.4" class="st16" width="296.4" height="31.9"/>
	<rect x="134.8" y="162.9" class="st17" width="208.5" height="114.1"/>
	<rect x="145.3" y="173.4" class="st18" width="57.2" height="42"/>
	<rect x="145.3" y="220.2" class="st18" width="57.2" height="8.4"/>
	<rect x="210.3" y="173.4" class="st18" width="57.2" height="42"/>
	<rect x="210.3" y="220.2" class="st18" width="57.2" height="8.4"/>
	<polygon class="st18" points="259.6,273.3 263.4,271.1 254.6,255.5 265.3,249.5 248.5,237 232.2,225 231.9,224.5 232,224.8 
		231.7,224.6 232,225.2 234,245.2 236,266.1 246.9,259.9 255.8,275.5 	"/>
	<rect x="275.3" y="173.4" class="st18" width="57.2" height="42"/>
	<rect x="275.3" y="220.2" class="st18" width="57.2" height="8.4"/>
	<line class="st19" x1="77.4" y1="315.6" x2="400.9" y2="315.6"/>
	<circle class="st20" cx="239.1" cy="330.4" r="2.6"/>
	<line class="st30" x1="194.2" y1="343.2" x2="283.9" y2="343.2"/>
</g>
</svg>
