<?xml version="1.0" encoding="utf-8"?>
<!-- Generator: Adobe Illustrator 25.0.0, SVG Export Plug-In . SVG Version: 6.00 Build 0)  -->
<svg version="1.1" id="Capa_1" xmlns="http://www.w3.org/2000/svg" xmlns:xlink="http://www.w3.org/1999/xlink" x="0px" y="0px"
	 viewBox="0 0 479 482" style="enable-background:new 0 0 479 482;" xml:space="preserve">
<style type="text/css">
	.st0{fill:#0F064F;}
	.st1{fill:#00CCA5;}
	.st2{fill:#00CCA5;stroke:#0F064F;stroke-width:4;stroke-miterlimit:10;}
	.st3{fill:none;stroke:#0F064F;stroke-width:10;stroke-miterlimit:10;}
	.st4{fill:none;stroke:#0F064F;stroke-width:10;stroke-linecap:round;stroke-miterlimit:10;}
	.st5{fill:none;stroke:#0F064F;stroke-width:4;stroke-miterlimit:10;}
	.st6{fill:none;stroke:#FFFFFF;stroke-width:10;stroke-miterlimit:10;}
	.st7{fill:none;stroke:#FFFFFF;stroke-width:7;stroke-miterlimit:10;}
	.st8{fill:none;stroke:#FFFFFF;stroke-width:4;stroke-miterlimit:10;}
	.st9{fill:#FFFFFF;}
	
		.st10{fill-rule:evenodd;clip-rule:evenodd;fill:none;stroke:#0F064F;stroke-width:10;stroke-linecap:round;stroke-linejoin:round;stroke-miterlimit:10;}
	.st11{fill-rule:evenodd;clip-rule:evenodd;fill:none;stroke:#0F064F;stroke-width:10;stroke-linecap:round;stroke-miterlimit:10;}
	.st12{fill-rule:evenodd;clip-rule:evenodd;fill:none;}
	
		.st13{fill-rule:evenodd;clip-rule:evenodd;fill:none;stroke:#0F064F;stroke-width:7;stroke-linecap:round;stroke-linejoin:round;stroke-miterlimit:10;}
	.st14{fill-rule:evenodd;clip-rule:evenodd;fill:#0F064F;}
	
		.st15{fill-rule:evenodd;clip-rule:evenodd;fill:#00CCA5;stroke:#0F064F;stroke-width:4;stroke-linejoin:round;stroke-miterlimit:10;}
</style>
<polygon class="st10" points="152.3,436 326.7,436 333.4,446 333.4,451 145.6,451 145.6,446 "/>
<rect x="181.6" y="381" class="st11" width="115.9" height="54.5"/>
<path class="st11" d="M41.6,71.2h395.9c8.3,0,15.1,6.8,15.1,15.1v279.5c0,8.3-6.8,15.1-15.1,15.1H41.6c-8.3,0-15.1-6.8-15.1-15.1
	V86.3C26.4,78,33.2,71.2,41.6,71.2z"/>
<path class="st12" d="M41.6,76.8h395.9c5.2,0,9.5,4.3,9.5,9.5V348H32V86.3C32,81.1,36.3,76.8,41.6,76.8z"/>
<rect x="48.1" y="95.9" class="st13" width="382.8" height="233.8"/>
<rect x="48.1" y="95.9" class="st14" width="382.8" height="41.2"/>
<rect x="104.8" y="150.7" class="st15" width="269.3" height="147.4"/>
<rect x="118.4" y="164.4" class="st14" width="73.9" height="54.2"/>
<rect x="118.4" y="224.8" class="st14" width="73.9" height="10.9"/>
<rect x="202.3" y="164.4" class="st14" width="73.9" height="54.2"/>
<rect x="202.3" y="224.8" class="st14" width="73.9" height="10.9"/>
<polygon class="st14" points="266,293.3 271,290.5 259.5,270.3 273.3,262.5 251.6,246.5 230.6,230.9 230.3,230.2 230.3,230.7 
	230,230.4 230.3,231.1 232.9,257.1 235.5,283.9 249.6,275.9 261,296.1 266,293.3 "/>
<rect x="286.2" y="164.4" class="st14" width="73.9" height="54.2"/>
<rect x="286.2" y="224.8" class="st14" width="73.9" height="10.9"/>
<line class="st4" x1="32" y1="348" x2="449.7" y2="348"/>
<circle class="st10" cx="240.3" cy="363.9" r="6.8"/>
</svg>
